# xmcd
#
# Track frame offsets: 
#        150
#        12568
#        30303
#        43687
#        57386
#        66662
#        87769
#        100952
#        113422
#        130955
#        150780
#
# Disc length: 2253 seconds
#
# Revision: 1
# Processed by: cddbd v1.5.2PL0 Copyright (c) Steve Scherf et al.
# Submitted via: ExactAudioCopyFreeDBPlugin 1.0
#
DISCID=8608cb0b
DTITLE=Pat Moore And The Vinyl Frontier - Cdn. - OVM - Ottawa, ON - Ta
DTITLE=ke It To Heart
DYEAR=2007
DGENRE=Country
TTITLE0=Forgivin' And Forgettin'
TTITLE1=How Long
TTITLE2=Cold-Hearted Man
TTITLE3=Strange
TTITLE4=I'll Be Your Fool 'Till The End Of My Days
TTITLE5=There's A Dark Cloud Hanging Over Me
TTITLE6=From One Cheatin' Heart To Another
TTITLE7=It Hurts
TTITLE8=You Don't Know Me
TTITLE9=Drinking Too Much
TTITLE10=Take It To Heart
EXTD=
EXTT0=
EXTT1=
EXTT2=
EXTT3=
EXTT4=
EXTT5=
EXTT6=
EXTT7=
EXTT8=
EXTT9=
EXTT10=
PLAYORDER=
